<svg xmlns="http://www.w3.org/2000/svg" xmlns:xlink="http://www.w3.org/1999/xlink" width="378" zoomAndPan="magnify" viewBox="0 0 283.5 283.500005" height="378" preserveAspectRatio="xMidYMid meet" version="1.0"><defs><g/><clipPath id="03a74ab5f2"><path d="M 0.863281 0.789062 L 98 0.789062 L 98 157 L 0.863281 157 Z M 0.863281 0.789062 " clip-rule="nonzero"/></clipPath><clipPath id="7220f76983"><path d="M 6 34 L 97.652344 34 L 97.652344 122 L 6 122 Z M 6 34 " clip-rule="nonzero"/></clipPath><clipPath id="cbbb062435"><rect x="0" width="98" y="0" height="157"/></clipPath><clipPath id="5dab025463"><path d="M 37 73 L 130.953125 73 L 130.953125 228.628906 L 37 228.628906 Z M 37 73 " clip-rule="nonzero"/></clipPath><clipPath id="66750171c7"><rect x="0" width="94" y="0" height="156"/></clipPath><clipPath id="194ed1763c"><rect x="0" width="131" y="0" height="229"/></clipPath></defs><g transform="matrix(1, 0, 0, 1, 77, 27)"><g clip-path="url(#194ed1763c)"><g clip-path="url(#03a74ab5f2)"><g transform="matrix(1, 0, 0, 1, 0.000000000000014211, 0.000000000000007105)"><g clip-path="url(#cbbb062435)"><g clip-path="url(#7220f76983)"><g fill="#2a3b23" fill-opacity="1"><g transform="translate(1.029488, 121.54012)"><g><path d="M 8.40625 0.40625 C 7.570312 0.40625 6.945312 0.109375 6.53125 -0.484375 C 6.125 -1.078125 5.921875 -1.789062 5.921875 -2.625 C 6.015625 -4 6.289062 -4.820312 6.75 -5.09375 C 7.207031 -5.375 8.078125 -5.515625 9.359375 -5.515625 C 12.023438 -5.515625 14 -5.992188 15.28125 -6.953125 C 16.570312 -7.921875 17.378906 -9.113281 17.703125 -10.53125 C 18.023438 -11.957031 18.234375 -13.816406 18.328125 -16.109375 L 18.328125 -70.796875 C 18.234375 -73.097656 18.023438 -74.957031 17.703125 -76.375 C 17.378906 -77.800781 16.570312 -78.992188 15.28125 -79.953125 C 14 -80.921875 12.023438 -81.40625 9.359375 -81.40625 L 8.546875 -81.40625 C 7.617188 -81.40625 6.972656 -81.566406 6.609375 -81.890625 C 6.242188 -82.210938 6.015625 -83.015625 5.921875 -84.296875 C 5.921875 -85.128906 6.125 -85.84375 6.53125 -86.4375 C 6.945312 -87.03125 7.570312 -87.328125 8.40625 -87.328125 C 14.375 -87.054688 19.789062 -86.921875 24.65625 -86.921875 C 30.164062 -86.921875 35.90625 -87.054688 41.875 -87.328125 C 42.695312 -87.328125 43.316406 -87.03125 43.734375 -86.4375 C 44.148438 -85.84375 44.359375 -85.128906 44.359375 -84.296875 C 44.265625 -82.921875 43.988281 -82.09375 43.53125 -81.8125 C 43.070312 -81.539062 42.195312 -81.40625 40.90625 -81.40625 C 38.25 -81.40625 36.273438 -80.921875 34.984375 -79.953125 C 33.703125 -78.992188 32.898438 -77.800781 32.578125 -76.375 C 32.253906 -74.957031 32.046875 -73.097656 31.953125 -70.796875 L 31.953125 -45.875 C 33.421875 -46.144531 35.070312 -46.921875 36.90625 -48.203125 C 38.75 -49.492188 41.003906 -51.285156 43.671875 -53.578125 C 48.804688 -58.359375 55.28125 -65.382812 63.09375 -74.65625 C 64.738281 -76.5 65.5625 -77.96875 65.5625 -79.0625 C 65.5625 -80.445312 64.320312 -81.179688 61.84375 -81.265625 C 61.207031 -81.359375 60.773438 -81.613281 60.546875 -82.03125 C 60.316406 -82.445312 60.109375 -83.160156 59.921875 -84.171875 C 59.921875 -84.992188 60.148438 -85.722656 60.609375 -86.359375 C 61.066406 -87.003906 61.664062 -87.328125 62.40625 -87.328125 C 65.613281 -87.054688 70.660156 -86.921875 77.546875 -86.921875 C 79.753906 -86.921875 82.972656 -87.015625 87.203125 -87.203125 L 90.09375 -87.328125 C 90.914062 -87.328125 91.554688 -87.03125 92.015625 -86.4375 C 92.472656 -85.84375 92.703125 -85.085938 92.703125 -84.171875 C 92.609375 -82.878906 92.332031 -82.070312 91.875 -81.75 C 91.414062 -81.425781 90.773438 -81.265625 89.953125 -81.265625 C 86.273438 -81.453125 82.804688 -80.859375 79.546875 -79.484375 C 76.285156 -78.109375 72.863281 -75.628906 69.28125 -72.046875 L 46.96875 -48.765625 C 50.1875 -44.816406 53.492188 -41.050781 56.890625 -37.46875 C 60.285156 -33.882812 64.375 -29.707031 69.15625 -24.9375 C 71.539062 -22.539062 74.382812 -19.597656 77.6875 -16.109375 C 78.695312 -15.097656 79.382812 -14.363281 79.75 -13.90625 C 82.695312 -10.96875 85.019531 -8.898438 86.71875 -7.703125 C 88.414062 -6.515625 90.503906 -5.785156 92.984375 -5.515625 C 93.160156 -5.515625 93.570312 -5.488281 94.21875 -5.4375 C 94.863281 -5.394531 95.390625 -5.144531 95.796875 -4.6875 C 96.210938 -4.226562 96.421875 -3.539062 96.421875 -2.625 C 96.421875 -1.789062 96.210938 -1.078125 95.796875 -0.484375 C 95.390625 0.109375 94.773438 0.40625 93.953125 0.40625 C 92.847656 0.320312 91.515625 0.28125 89.953125 0.28125 C 86.640625 0.09375 84.066406 0 82.234375 0 L 73.421875 0 C 61.296875 -13.5 50.457031 -25.757812 40.90625 -36.78125 C 37.96875 -40.175781 34.984375 -42.015625 31.953125 -42.296875 L 31.953125 -16.109375 C 32.046875 -13.816406 32.253906 -11.957031 32.578125 -10.53125 C 32.898438 -9.113281 33.703125 -7.921875 34.984375 -6.953125 C 36.273438 -5.992188 38.25 -5.515625 40.90625 -5.515625 L 41.734375 -5.515625 C 42.648438 -5.515625 43.289062 -5.351562 43.65625 -5.03125 C 44.03125 -4.707031 44.265625 -3.90625 44.359375 -2.625 C 44.359375 -1.789062 44.148438 -1.078125 43.734375 -0.484375 C 43.316406 0.109375 42.695312 0.40625 41.875 0.40625 C 36 0.132812 30.304688 0 24.796875 0 C 19.835938 0 14.375 0.132812 8.40625 0.40625 Z M 8.40625 0.40625 "/></g></g></g></g></g></g></g><g clip-path="url(#5dab025463)"><g transform="matrix(1, 0, 0, 1, 37, 73)"><g clip-path="url(#66750171c7)"><g fill="#2a3b23" fill-opacity="1"><g transform="translate(0.872484, 121.110288)"><g><path d="M 41.875 1.375 C 39.125 -6.15625 34.765625 -18.140625 28.796875 -34.578125 C 22.828125 -51.015625 18.460938 -62.90625 15.703125 -70.25 C 14.140625 -74.195312 12.625 -76.953125 11.15625 -78.515625 C 9.6875 -80.078125 7.53125 -81.132812 4.6875 -81.6875 C 4.3125 -81.78125 3.753906 -81.894531 3.015625 -82.03125 C 2.285156 -82.164062 1.804688 -82.4375 1.578125 -82.84375 C 1.347656 -83.257812 1.234375 -83.929688 1.234375 -84.859375 C 1.234375 -85.953125 1.53125 -86.679688 2.125 -87.046875 C 2.726562 -87.421875 3.671875 -87.609375 4.953125 -87.609375 C 11.847656 -87.609375 17.082031 -86.550781 20.65625 -84.4375 C 24.238281 -82.320312 27.085938 -78.554688 29.203125 -73.140625 L 49.171875 -19.421875 L 49.59375 -19.421875 L 68.59375 -74.65625 C 69.144531 -76.21875 69.421875 -77.410156 69.421875 -78.234375 C 69.421875 -79.523438 68.890625 -80.375 67.828125 -80.78125 C 66.773438 -81.195312 65.007812 -81.40625 62.53125 -81.40625 L 61.71875 -81.40625 C 60.789062 -81.40625 60.144531 -81.566406 59.78125 -81.890625 C 59.414062 -82.210938 59.1875 -83.015625 59.09375 -84.296875 C 59.09375 -85.128906 59.296875 -85.84375 59.703125 -86.4375 C 60.117188 -87.03125 60.695312 -87.328125 61.4375 -87.328125 C 67.40625 -87.054688 72.410156 -86.921875 76.453125 -86.921875 C 78.191406 -86.921875 81.539062 -87.015625 86.5 -87.203125 L 89.40625 -87.328125 C 90.226562 -87.328125 90.84375 -87.03125 91.25 -86.4375 C 91.664062 -85.84375 91.875 -85.128906 91.875 -84.296875 C 91.78125 -83.015625 91.550781 -82.210938 91.1875 -81.890625 C 90.820312 -81.566406 90.179688 -81.40625 89.265625 -81.40625 C 85.316406 -81.40625 82.304688 -80.757812 80.234375 -79.46875 C 78.171875 -78.1875 76.40625 -75.710938 74.9375 -72.046875 C 72.175781 -64.515625 67.742188 -52.320312 61.640625 -35.46875 C 55.535156 -18.613281 51.101562 -6.332031 48.34375 1.375 Z M 41.875 1.375 "/></g></g></g></g></g></g></g></g></svg>